<?xml version="1.0" standalone="no"?>
<!DOCTYPE svg PUBLIC "-//W3C//DTD SVG 20010904//EN"
 "http://www.w3.org/TR/2001/REC-SVG-20010904/DTD/svg10.dtd">
<svg version="1.0" xmlns="http://www.w3.org/2000/svg"
 width="700.000000pt" height="700.000000pt" viewBox="0 0 700.000000 700.000000"
 preserveAspectRatio="xMidYMid meet">
<metadata>
Created by potrace 1.11, written by Peter Selinger 2001-2013
</metadata>
<g transform="translate(0.000000,700.000000) scale(0.100000,-0.100000)"
fill="#000000" stroke="none">
<path d="M3412 5731 c-90 -31 -153 -107 -171 -206 -6 -32 -11 -143 -11 -246
l0 -187 -227 -4 c-221 -3 -230 -4 -284 -30 -92 -42 -142 -126 -142 -238 0
-112 47 -191 140 -237 58 -28 59 -28 286 -32 l227 -3 0 -187 c0 -267 17 -334
102 -406 42 -36 82 -52 146 -61 103 -13 204 41 257 137 l30 54 3 233 3 232
213 0 c260 0 298 8 368 80 104 107 104 277 -1 381 -70 71 -109 79 -367 79
l-213 0 -3 233 -3 232 -29 53 c-68 122 -192 169 -324 123z"/>
<path d="M0 2673 c0 -285 5 -549 10 -586 39 -267 223 -486 487 -575 l78 -27
1463 -3 1462 -2 0 -730 0 -730 654 0 c709 0 697 -1 771 56 19 14 47 51 62 82
36 75 38 173 4 245 -27 55 -89 112 -140 128 -20 6 -114 14 -208 16 -95 3 -173
9 -173 14 0 14 -99 837 -106 882 l-6 37 1009 0 c1136 0 1082 -3 1243 76 79 39
110 62 180 133 71 71 94 102 132 181 77 155 78 170 78 785 l0 535 -3500 0
-3500 0 0 -517z"/>
</g>
</svg>
